<svg version="1.1" id="Layer_1" xmlns="http://www.w3.org/2000/svg" x="0" y="0" viewBox="0 0 604 604" style="enable-background:new 0 0 604 604" xml:space="preserve"><style>.st0{fill:#54443b}@media(prefers-color-scheme:dark){.st0{fill:#f2e8cf}}</style><g id="Logo"><path class="st0" d="M64.66 255.24c-2.68-.7-5.39-1.31-8.03-2.14-2.11-.66-4.14-1.58-6.21-2.38 1.29-1.43 2.67-2.79 3.85-4.31 1.61-2.08 3.23-4.19 4.51-6.47.78-1.39.93-3.13 1.36-4.71l1.42-.42c1.35 2.18 3.61 4.26 3.85 6.56.48 4.53 4.06 5.22 6.52 4.74 8.15-1.59 16.14-4 24.1-6.4.63-.19 1.16-3.06.66-4.22-1.23-2.82-3.09-5.37-4.97-8.48-2.75 1.05-4.13-.89-6.33-3.61-3.84-4.74-8.88-8.62-13.84-12.29-1.95-1.45-5.03-1.38-7.36-2.42-3.07-1.51-6.14-3.03-9.21-4.54l.09-1.33c3.68.54 7.72.31 10.96 1.8 5.4 2.48 10.48 5.8 15.31 9.29 2.34 1.7 3.83 4.59 5.7 6.94.73.92 1.78 2.75 2.13 2.62 5.28-1.89 6.03 2.82 8.3 5.4 3.28 3.72 7.44 4.59 12.14 3.21 2.45-.72 4.9-1.44 6.31-2.79 3.5-6.14 6.84-12.37 10.54-18.39 2.66-4.33 5.94-8.27 8.6-12.59.77-1.25.57-3.24.43-4.86-.32-3.64-.68-7.3-1.47-10.86-.2-.91-2.04-1.95-3.19-2.03-1.77-.12-3.6.53-5.62.9 2.67-3.23 4.41-6.28 7-8.13 1.96-1.4 5-1.64 7.58-1.73 4.46-.16 9.92-2.57 11.95 4.43.25.85 2.18 1.21 3.51 1.88-6.02 5.52-7.64 11.78-4.8 19.17.37.97.2 2.4-.23 3.39-4.19 9.75-4.48 20.15-4.47 30.42 0 4.77 2.4 9.52 3.61 14.31.61 2.43.23 6.33 1.63 7.08 2.46 1.33 5.95.97 9 .92 9.78-.17 19.56-.64 29.35-.76 11.14-.14 22.27-.05 33.41-.02.91 0 1.82.31 2.83 1.51-1.17.23-2.32.6-3.5.66-1.7.09-3.5-.39-5.1.01-2.71.67-5.3 1.83-7.94 2.78 1.82 2.05 3.64 4.11 5.46 6.16 3.97 4.48 8.44 8.63 11.78 13.54 3.25 4.78 7.05 8.26 12.5 10.03 3.27 1.06 4.25 2.9 1.57 5.6-2.3 2.32-1.18 3.77.94 5.38 6.77 5.12 11.88 12.31 19.97 15.86 1.06.47 1.61 2.43 2.08 3.81.48 1.45.24 3.21.93 4.5.83 1.55 2.21 3.69 3.55 3.85 1.32.15 3.35-1.56 4.28-2.97 5.38-8.16 10.53-16.48 15.76-24.74.55-.87 1.17-1.7 1.73-2.57 8.16-12.47 7.4-7.23-.1-19.75-2.6-4.34-6.43-7.96-9.78-11.84-6.03-6.98-14.04-9.49-22.91-9.97-1.6-.09-3.19-.21-4.78-.32.02-.54.03-1.08.05-1.62h84.9c.04.24.08.49.11.73-3.75.35-7.48.84-11.24 1-5.01.22-9.95.93-12.1 6.09-2.27 5.42 1.69 9.61 4.34 13.58 10.84 16.25 21.92 32.34 33.18 48.3 1.34 1.9 4.2 3.66 6.47 3.81 5.61.37 11.29-.14 16.92-.51 1.2-.08 2.83-.76 3.43-1.69 7.45-11.49 14.79-23.05 22.08-34.64 4.72-7.51 9.55-14.97 13.86-22.72 3.52-6.32.91-11.23-6.24-12.17-4.74-.62-9.58-.51-14.37-.81-.99-.06-1.96-.49-2.93-.74.04-.51.09-1.02.13-1.53 5.59 0 11.19.04 16.78-.01 14.97-.13 29.94-.25 44.91-.55 1.58-.03 3.41-.86 4.65-1.89 6.71-5.56 14.47-8.77 22.75-11.14 6.13-1.75 6.31-2.61 3.46-8.57-.36-.75-.53-1.59-.91-2.79 3.83-1.37 7.51-2.62 11.12-4.01 4.93-1.9 5.83-4.77 2.8-8.94-3.22-4.42-6.56-8.75-9.81-13.14-2.91-3.94-1.76-6.41 1.1-10.27 3.5-4.72 7.82-5.53 13-6.2 7.44-.96 14.9-2.34 22.11-4.36 3.32-.93 6.74-3.28 8.96-5.95 3.39-4.07 9.47-5.19 12.97-1.07 2.28 2.69 3.9 5.92 5.47 8.37-4.43 2.74-8.7 4.97-12.44 7.88-1.35 1.05-1.42 3.73-2.07 5.66 1.74.08 3.55.5 5.22.19 6.01-1.12 11.93-2.84 17.97-3.64 5.08-.67 10.37-.99 15.42-.34 6.05.78 12.36 1.89 17.75 4.51 3.87 1.88 5.86 3.09 7.54-2.49l1.35.63c.43 1.66 1.78 4.02 1.14 4.86-2.25 2.92-1.34 5.65-.8 8.66.29 1.61.26 3.72-.55 5.02-5.74 9.13-1.49 18.29-.14 27.35.66 4.41-.55 11.33-3.04 10.82-3.7-.76-7.68-3.28-10.13-6.23-3.79-4.56-6.44-10.07-9.45-15.25-1.64-2.83-4.33-4.36-6.75-2.53-1.48 1.12-2.19 4.81-1.55 6.81.86 2.69 2.93 5.44 5.23 7.15 6.95 5.18 8.24 11.93 7.51 20.12-.77 8.55-6.77 13.52-10.16 20.15-1.16 2.27-5.35 3.57-8.38 4.13-2.88.54-4.95-3.82-3.1-6.43 2.25-3.18 4.83-6.18 7.62-8.9 2.12-2.08 2.35-4.21.07-5.49-2.89-1.63-6.36-3.36-9.48-3.21-6.35.32-12.64 1.23-18.38 5.09-3.5 2.35-8.29 2.84-12.54 4-8.55 2.32-17.17 4.4-25.68 6.84-6.08 1.74-11.65 4.66-14.41 10.72-4.1 9-12.27 14.57-18.05 22.15-5.97 7.84-13.03 14.9-18.51 23.04-2.26 3.36-2.56 8.74-2.14 13.04.78 7.84-6.29 24.67-14.67 27.54-1.01.35-2.75.63-3.25.1-2.97-3.15-5.8-6.45-8.31-9.97-.37-.52 1-2.67 1.98-3.67 2.22-2.25 2.39-4 .94-7.16-6.11-13.38-17.68-17.22-30.78-20.02-9.6-2.05-12.56 3.79-16.21 10.05-5.26 9.03-10.61 18.01-16.09 26.91-4.22 6.87-7.69 6.81-12.07-.08-7.34-11.56-14.56-23.2-22-34.7-.87-1.35-2.77-2.02-4.2-3.01-1 1.5-2.17 2.91-2.94 4.52-.42.85-.21 2.03-.21 3.06-.01 15.85.08 31.7-.07 47.54-.03 3.53.97 4.81 4.65 4.77 16.19-.17 32.4.34 48.57-.21 11.22-.38 18.43-6.33 21.96-16.93.47-1.41 2.12-2.43 3.22-3.63.69 1.32 1.97 2.64 1.98 3.97.15 13.26.15 26.53-.01 39.79-.02 1.29-1.42 2.56-2.18 3.84-.66-1.2-1.74-2.34-1.92-3.61-1.04-7.43-5.2-12.3-12.22-14.29-4.24-1.21-8.78-1.8-13.2-1.87-14.81-.22-29.63-.08-44.44-.08h-6.35v6.02c0 15.33.41 30.68-.14 45.99-.38 10.48 5.25 14.08 13.24 15.89 5.47 1.24 11.22 1.22 16.84 1.75 1.74.17 3.49.31 5.23.47-.03.46-.05.93-.08 1.39h-99.68l-.09-1.35c1.9-.17 3.81-.28 5.7-.52 6.26-.79 12.61-1.2 18.74-2.58 5.78-1.3 8.41-6.1 8.43-11.63.16-37.38.07-74.76.09-112.14 0-5.1-3.39-7.77-7.3-9.69-.93-.46-3.53.85-4.34 2.05-8.08 11.93-15.79 24.11-23.94 35.99-3.53 5.14-7.67 9.9-11.88 14.52-2.95 3.24-7.65 2.03-10.18-2.6-5.48-10.02-10.13-20.54-16.25-30.14-5.1-7.99-11.81-14.95-17.82-22.36-3.31-4.08-6.5-8.27-10.01-12.17-1.29-1.43-3.34-2.17-5.04-3.23l-1.5.6c.31 1.67.19 3.6 1.01 4.96 5.48 9.11 4.71 14.57-3.6 21.39-3.79 3.11-7.8 5.96-11.83 8.75-4.09 2.82-7.23 9.95-5.65 14.64 1.44 4.25-1.26 6.39-3.95 7.89-1.83 1.02-5.23 1.31-6.82.25-2.78-1.86-4.97-4.91-3.14-8.87 1.75-3.78 4.66-7.02 3.74-11.9-.25-1.33 2.44-3.55 4.16-4.87 10.21-7.81 12.28-20.54 5.36-31.43-2.18-3.43-3.48-3.9-8.03-3.14-13.07 2.2-26.45 4.08-39.76.64-3.61-.93-5.41 1.04-4.62 4.79 1.93 9.21 5.37 17.35 12.67 24 4.39 4 7.08 9.85 10.62 14.8 1.07 1.49 2.28 2.96 3.71 4.1 5.49 4.39 5.06 13.56-.9 17.22-3.28 2.01-5.86 1.26-6.68-2.46-2.42-10.98-9.36-18.54-17.35-25.93-3.98-3.68-5.85-9.75-8.4-14.86-3.65-7.32-7.1-14.74-10.56-22.16-1.79-3.82-4.71-4.13-8.18-2.84-8.84 3.28-17.75 6.39-26.43 10.05-2.33.98-4.51 3.41-5.69 5.73-1.74 3.42-3.51 5.69-7.76 5.15-1.4-.18-3.27.29-4.35 1.17-4.47 3.65-8.61 7.71-13.1 11.34-2.33 1.89-5.18 3.13-7.7 4.79-1.18.78-2.55 1.66-3.17 2.84-2.15 4.12-9.94 5.22-12.54 1.49-.49-.7-.31-2.53.28-3.2 3.68-4.18 7.57-8.18 11.4-12.25l-.12-.12c-.8 1.4-1.43 2.93-2.43 4.17-2.28 2.84-4.74 5.53-7.36 8.54 3.9 2.62 6.54 4.12 8.85-.76.71-1.5 3.09-2.26 4.8-3.2 1.02-.57 2.44-.56 3.28-1.27 5.22-4.4 10.25-9.02 15.53-13.35 1.49-1.22 3.68-2.46 5.42-2.3 4.19.39 5.76-1.62 7.07-5.11.72-1.92 2.35-4.17 4.13-4.89 9.51-3.83 19.08-7.64 28.9-10.53 3.09-.91 8.27-.2 10.29 1.89 3.66 3.79 5.97 9.03 8.25 13.95 1.93 4.16 2.64 8.88 4.56 13.04 1.82 3.96 3.7 8.67 6.99 11.03 6.44 4.61 10.32 10.79 14.02 17.32 1.78 3.13 3.29 6.42 4.93 9.63.45.05.9.09 1.35.14.71-3.39 2.93-7.44 1.81-10.05-2.36-5.51-6.54-10.22-9.85-15.34-5.09-7.87-14.55-12.49-16.45-22.81-1.13-6.14-4.28-12.18 1.03-17.89.21-.22-.12-.94-.27-1.92-2.95.21-5.86.41-9.44.67.82-1.97 1.02-3.5 1.88-4.35 4.69-4.6 4.41-10.3 3.36-15.93-.3-1.61-2.37-3.76-3.95-4.09-3.38-.7-3.92-2.41-3.06-5.13 1.58-5.04 3.28-10.04 5.03-15.02.15-.43 1.05-.6 2.08-1.15.09 1.4.22 2.33.18 3.25-.13 3.13-.84 6.33-.4 9.37 1.32 8.99 5.19 17.83.83 27.03-.34.71.06 2.05.57 2.77.33.46 1.93.69 2.23.36 2.36-2.6 6.41-4.1 5.27-8.98-1.05-4.47-1.68-9.06-2.17-13.63-.23-2.13.16-4.38.54-6.53.43-2.42 1.16-4.8 1.99-8.13 4.27-2.29 9.48-5.09 14.48-7.77-.23-2.55-.22-4.76-.67-6.88-.48-2.26-1.34-4.67-4.47-2.74-5.31 3.27-10.55 6.63-15.88 9.99-2.41-6.15 4.59-5.08 5.91-8.32-1.03-1.59-2-3.1-3.09-4.77 1.61-1.34 2.96-2.47 3.51-2.94l1.71 5.1c1.92-.7 3.84-1.41 5.76-2.11-1.08-2.14-2.16-4.28-3.36-6.65 6.6-4.91 17.67-8.85 22.09-6.85-3.7 1.46-6.84 2.84-10.07 3.93-5.68 1.91-6.6 4.53-2.96 9.53 1.91 2.63 4.4 4.87 6.11 7.61 3.24 5.2 8.52 6.23 12.58 3.04 0-3.33.19-5.78-.04-8.2-.55-5.95-2.11-11.93-1.78-17.81.14-2.39.31-4.78.52-7.17.66-7.42 1.69-14.82 3.17-22.09 1.46-7.17.07-11.7-6.47-13.31-.2-1.61-.42-3.3-.76-5.95 2.39 1.28 3.67 2.39 5.06 2.57 1.01.13 2.92-.78 3.14-1.57.55-2.04.55-4.29.36-6.42-.04-.4-2.07-1.1-2.97-.86-2.43.66-4.96 1.42-7.03 2.78-1.34.88-3.05 3.28-2.68 4.32 2 5.68.2 12.82 6.68 16.7-2.84 1.57-5.71 2.41-7.51 4.28-6.95 7.24-12.74 15.36-15.33 25.23-1 3.8-2.99 5.12-6.65 4.7-1.09-.13-2.21-.02-2.68-.02-.53 3.35-.96 6.08-1.39 8.81l-1.55-1.67c-3.4.53-6.85.84-10.19 1.64-10 2.38-18.95 8.43-29.71 8.4-1 0-2.01 2.67-3.01 4.11l.18-.1zm94.42 50.51c5.76 7.07 7.15 15.69 8.28 24.03.56 4.15.71 10.02-4.04 12.62-8.15 4.45-9.9 12.84-13.37 20.12-.78 1.63.22 4.69 1.37 6.45.62.94 4.04 1.32 4.89.53 1.3-1.2 2.11-3.66 2-5.53-.35-5.89.72-11.51 4.89-15.52 4.27-4.12 9.48-7.28 14.39-10.7 6.09-4.24 6.86-7.45 3.14-13.78-1.89-3.22-3.82-6.32-1.92-10.53.5-1.11-1.43-3.79-2.82-5.18-6.13-6.16-12.47-12.12-18.74-18.15.15-1.03.31-2.05.46-3.08 5.02 7.12 5.17-2.02 8.12-.63.59 3.43.35 6.95 1.81 9.5 3.64 6.36 9.21 10.78 16.25 13.29 2.1.75 5.47.45 4.89 4.48-.1.7 1.01 1.64 1.68 2.37 5.78 6.29 11.6 12.55 17.38 18.84 9.85 10.72 16.75 23.25 22.71 36.42 1.04 2.3 1.66 6.65 5.78 4.95 3.76-1.55 4.75-4.7 2-8.35-.36-.48-.22-1.33-.35-2.01-1.09-5.76-4.59-9.94-9.48-12.62-3.1-1.7-3.58-3.9-4.09-6.98-.64-3.89-1.63-8.09-3.77-11.29-8.2-12.29-16.78-24.33-25.48-36.27-8.78-12.05-17.85-23.9-26.86-35.78-.68-.89-1.76-1.74-2.81-2.04-13.97-3.93-32.03 6.02-36.05 20.16-1.35 4.73-3.57 6.11-8.57 4.17.74-1.34 1.21-2.59 2.02-3.56 4.27-5.19 8.72-10.23 12.89-15.49.99-1.24 1.18-3.12 1.74-4.7-2.43-.2-4.97-.93-7.27-.47-2.23.45-4.12 2.86-6.32 3.15-7.67 1-8.69 6.98-9.8 12.64-.64 3.22-1.22 7.24 3.45 7.55-.86 1.79-2.19 3.27-2.16 4.73.15 6.5 3.4 13.33-3.54 19.15 16.7 3.4 32.15 4.5 47.3-2.49zm337.07-65.42c.36-.3.72-.6 1.08-.91 3.67.69 7.32 1.67 11.02 1.97 2.97.24 6.79-1.7 4.77-4.52-2.94-4.09-2.15-10.35-8.59-12.68-5.47-1.98-13.51.1-16.06 6.27 2.1 1.04 4.23 2.09 6.8 3.35-3.34 2.05-5.75 3.82-8.41 5.1-9.97 4.77-20.01 9.42-30.06 14.02-1.69.78-3.58 1.65-5.36 1.59-3.74-.12-5.09 1.96-6.04 4.89 4.1 2.64 4.33 3.67 3.3 8.4-1.6 7.32-.31 14.46 3.58 20.63 3.04 4.82 3.83 9.05.67 13.78-1.98 2.97-4.22 5.78-6.17 8.77-2.04 3.13-4.72 6.17-5.6 9.64-1.56 6.2-1.43 12.83-3.04 19.01-1.3 5.03-.47 10.93-5.72 14.74-7.08 5.15-6.95 6.64-.62 13.01.81.81 1.24 2.01 1.75 2.86 5.61-4.07 11.45-14.57 11.26-20.2-.29-8.51.54-16.81 5.91-23.67 5.67-7.24 12.14-13.85 18.03-20.92 5.8-6.95 11.99-13.72 16.74-21.36 3.22-5.19 6.78-8.84 12.49-10.54 4.1-1.22 8.17-2.56 12.29-3.71 8.97-2.51 9.09-2.49 7.7-11.62-.19-1.27-2.18-3.21-3.33-3.21-3.99.01-5.28-1.83-4.97-5.42.28-3.3-1.07-4.71-4.48-4.55-1.83.08-3.88-.2-5.48-1.02-1.41-.73-2.33-2.43-3.46-3.7zm50.08-29.53c-1.6 3.13-4.13 2.86-5.74.19-2.81-4.65-5.6-9.49-7.25-14.62-2.49-7.74-1.78-8.65 4.45-13.39.98-.74 1.66-1.86 2.49-2.81-1.27-.66-2.5-1.75-3.82-1.86-1.82-.16-4.16-.19-5.49.79-4.89 3.6-10.46 3.67-16.1 4.33-5.57.65-11.04 2.25-16.48 3.73-1.87.51-4.13 1.49-5.12 2.99-3.87 5.8-1.78 13.61 4.22 18.33 7.3 5.74 13.19 12.68 17.63 20.91.71 1.31 3.09 1.72 4.7 2.54.26-1.59 1.13-3.38.69-4.75-2.15-6.59-5.64-12.39-11.02-16.96-.75-.64-1.42-2.76-1.29-2.85 2.54-1.58 5.09-3.61 7.9-4.12 1.59-.29 3.95 1.67 5.44 3.15 5.07 5.04 9.33 11.14 15.07 15.16 3.02 2.11 8.47.87 12.82.85 1.08-.01 2.16-1.15 3.24-1.77-1.14-.69-2.21-1.67-3.44-1.99-1.77-.46-3.67-.44-5.51-.62l.15-1.29c6.21.18 6.21.18 6.37-8.84 1.65 3.22 2.46 5.4 3.76 7.22 2.35 3.3 4.88 6.49 7.62 9.46.43.46 3.42-.45 3.41-.72-.03-4.06 3.16-6.27 5.82-5.81 3.09.52 6.58 2.9 8.45 5.51 4.39 6.14 7.81 12.97 11.88 19.35.85 1.34 2.85 1.95 4.32 2.89.73-1.39 2.01-2.76 2.06-4.18.08-2.33-.85-4.67-.98-7.02-.43-7.64-4.64-15.3.09-22.95.4-.64.58-1.78.28-2.43-2.36-5.22-3.83-11.42-10.59-12.75-5.16-1.01-10.48-1.93-15.7-1.79-8.68.24-17.37 1.13-26 2.2-4.32.53-5.63 3.48-3.55 7.16 1.29 2.27 3.21 4.19 5.22 6.76zM431.78 350.37c1.32-1.57 1.96-2 1.91-2.33-1.14-8.57 1.79-16.31 4.64-24.11.75-2.04.33-4.49.96-6.59.72-2.38 1.41-5.31 3.16-6.73 8.9-7.22 10.27-13.16 5.89-23.7-1.99-4.8-2.69-10.16-3.7-15.33-.52-2.66.12-6.05-4.08-5.65-3.85.37-4.35 3.23-3.9 6.47.49 3.53 1.06 7.05 1.39 10.6.64 6.98-1.44 11.48-6.73 13.24 4.18-8.68 3.74-17.26 2.6-25.93-.84-6.36.28-7.56 6.4-8.42 1.29-.18 2.4-1.59 3.59-2.43-1.36-.77-3.13-2.52-4.01-2.16-3.82 1.6-8.6 2.93-10.83 5.98-8.16 11.16-15.51 22.92-22.96 34.58-.81 1.27-.6 4.86-.31 4.93 5.51 1.26 8.57 10.35 16.64 4.16.45 4.18.79 7.39 1.13 10.6-.61.26-1.23.53-1.84.79.81-5.95-1.94-7.2-6.76-6.95-1.65.09-3.81-1.85-5.05-3.41-3.19-4.02-7.01-4.15-9.9.02-2.53 3.65-5.16 7.24-7.56 10.97-.87 1.36-1.2 3.07-1.77 4.62 1.68.55 3.37 1.56 5.05 1.57 9.08.04 18.19.18 27.24-.44 5.18-.35 6.2 2.04 6.3 6.21.11 4.78.24 9.57.61 14.34.11 1.46 1.02 2.84 1.89 5.1zm91.14-84.2c7.01-2.42 13.58-5.07 20.37-6.91 6.57-1.78 12.78-6.99 20.06-3.48 2.3 1.11 3.58 4.15 5.72 5.81 5.15 3.99 4.71 7.86-1.19 11.14-2.04 1.13-3.54 3.25-5.28 4.91.46.58.92 1.16 1.39 1.75 1.79-.97 3.86-1.63 5.32-2.96 5.66-5.17 8.23-11.8 9.51-19.33 1.93-11.34-1.94-11.81-9.4-13.92-1.32-.37-3.12-1.68-3.37-2.84-2.01-9.36-1.91-9.38-10.23-10.46-.56-6.18-.55-6.1-7.05-5.02-3.68.61-7.42 1.35-11.11 1.25-4.96-.14-7.72 1.7-8.8 6.59-.34 1.54-1.72 2.92-2.8 4.23-5.21 6.32-4.96 9.39 1.31 14.67-6.03 3.71-6.03 3.71-4.45 14.57zM237.87 289.7c-7.77-2.09-11.37-7.55-15.29-13.11-2.98-4.22-7.36-7.56-11.48-10.82-2.02-1.6-4.88-2.14-7.36-3.16.86 2.63 1.37 5.46 2.68 7.84 1.57 2.84 3.43 5.97 7.83 3.75.68-.34 2.76.64 3.2 1.51 4.24 8.37 8.09 16.94 12.42 25.26 2.82 5.42 6.22 10.55 9.43 15.77.97 1.58 2.23 2.98 3.27 4.52 4.59 6.83 9.07 13.73 13.85 20.43.44.62 3.74.36 3.96-.2 1.62-4.05 2.79-8.29 4.24-12.9-3.08-.54-5.08-.89-7.08-1.23 3.54-1.41 4.82-2.93 1.93-6.06-.59-.64-.12-2.19-.32-3.28-.21-1.17-.25-2.8-1.02-3.38-4.86-3.7-10.12-6.89-14.8-10.79-3.36-2.8-6.02-6.45-9.02-9.74 1.12-1.38 1.94-2.4 3.56-4.41zm70.55 36.39c2.58 0 5.18.22 7.72-.07 1.89-.22 3.71-1.1 5.56-1.69-.77-1.82-1.26-3.82-2.35-5.42-4.53-6.63-9.37-13.05-13.83-19.72-2.16-3.22-3.93-2.89-5.82-.1-4.79 7.08-9.45 14.24-14.23 21.31-2.77 4.1-2.35 5.46 2.48 5.63 6.81.25 13.65.07 20.47.06zM513.3 208.42c4.41 7.65 8.2 14.22 11.85 20.56 1.93-2.34 3.99-4.86 6.54-7.96-6.21-3.34-8.05-13.25-18.39-12.6zM365.73 343.48c2.35-3.49 4.32-6.05 5.83-8.87.48-.89-.19-3.52-.47-3.54a84.91 84.91 0 0 0-10.7-.13c-.53.03-1.09 1.48-1.42 2.35-.14.37.17 1.02.45 1.42 1.85 2.63 3.75 5.23 6.31 8.77zm-120.1 33.02c-1.63-1.32-3.26-2.78-3.35-2.69-1.83 1.83-3.55 3.79-5.07 5.88-.14.2 1.77 2.22 1.83 2.18 2.05-1.52 4-3.19 6.59-5.37zM56.18 248.64c.35.52.7 1.04 1.04 1.56 2.49.56 5.03.95 5.81-2.59.16-.74-1-1.76-1.55-2.65-1.76 1.23-3.53 2.45-5.3 3.68zm164.48 38.68-4.98-9.47c-1.94 5.15-.7 7.53 4.98 9.47z"/><path class="st0" d="M37.23 195.92c1.03 1.35 2.7 3.55 5.1 6.7 1.02-2.98 1.63-4.77 2.56-7.5 2.08 3.41 3.78 6.19 5.46 8.96-.34.43-.55.92-.74.91-8.83-.33-11.54 2.8-9.25 11.23.33 1.23 2.26 2.75 3.54 2.84 1.71.11 3.79-.67 5.17-1.77 1.14-.91 1.49-2.81 2.75-4.08-1.68 11.6-2.35 23.4-7.9 33.97l-1.8-.42c1.07-4.07 2.1-8.15 3.22-12.2.41-1.47 1.1-2.87 1.55-4.33 2.13-6.91.41-9.35-6.75-9.22-3.24.06-2.93 2.01-1.91 4.28 2.9 6.47 2.46 12.54-2.53 17.89-.76.81-1.84 1.72-2.86 1.84-5.89.65-5.63 5.1-5.82 9.2-.21 4.58.41 8.86 6.16 9.53 1.48.17 3.33-.13 4.53-.93 1.49-.99 2.35-2.87 3.72-4.1 1.62-1.45 3.51-2.61 5.28-3.9-.75 2.34-1.03 4.99-2.33 6.97-3.25 4.93-8.81 4.89-13.87 5.12-3.48.16-6.87-6.64-6.02-11.63 2.11-12.46 4.84-24.65 9.57-36.55 2.83-7.1 2.27-15.55 3.17-22.81zM13.96 336.04c.69-1.46 1-3.41 2.14-4.29 6.45-5 13.06-9.8 19.69-14.56 6.74-4.84 13.8-9.26 20.27-14.43 5.68-4.54 8.6-10.84 8.59-18.3-.01-9.74 0-19.48.01-29.21l-.17.14c.66 1.42 1.81 2.82 1.88 4.28.26 5.13 0 10.28.23 15.41.36 7.87 1.18 15.76-3.93 22.79.28.37.56.73.84 1.1 3.53-1.48 7.06-2.97 11.96-5.03-7.16 5.53-13.08 10.01-18.89 14.62-2.82 2.24-4.43 7.15-9.54 3.94-.35-.22-1.31.3-1.86.67-4.49 3.03-9.03 6-13.41 9.2-6.05 4.43-11.97 9.03-17.95 13.56l.14.11zm70.78-63.51c-4.16-5.64-4.27-11.37-.33-16.37 3.55-4.51 9.47-3.99 15-6-1.77 6.48-3.48 11.63-4.55 16.9-1.22 6.05-6.1 4.57-10.12 5.47zm11.3-18.3c-7.94.6-12.99 7.69-11.15 12.86.94 2.65 4.58 3.43 5.9.89 2.08-4.04 3.31-8.52 5.25-13.75zm57.45 51c-3.3.95-6.59 1.9-9.89 2.86-.17-.59-.35-1.18-.52-1.77 3.25-1.1 5.92-4.19 9.89-2.84.18.59.35 1.17.52 1.75zm271.49 12.97c1.54-6.12 3.08-12.25 4.73-18.83 1.85 4.09.25 11.64-4.73 18.83zm-286.85-94.24c-1.98-1.1-4.18-5.28-3.74-7.27s.6-2.64 1.84-1.98c1.24.66 2.56 2.61 2.78 4.5.88 1.22 5.45 0 5.45 0l-.45 4.54c-.01 0-3.9 1.31-5.88.21zm-62.08 50.98c-1.92-1.62-4.86-4.31-3.76-5.41s3.07-.44 4.61 1.11c1.54 1.54 3.97 3.52 3.09 4.84s-1.52 1.51-3.94-.54zm8.62 21.34c2.77-2.33 6.72-5.89 8.3-4.87 1.58 1.02-2.49 5.88-2.49 5.88s-3.57 4.79-5.81 3.26c-2.23-1.53 0-4.27 0-4.27z"/></g></svg>